<svg width="59" height="59" viewBox="0 0 59 59" fill="none" xmlns="http://www.w3.org/2000/svg">
<path d="M24.8017 6.70584L18.4241 9.02709L19.1979 11.153L25.5755 8.8317L24.8017 6.70584Z" fill="#222034"/>
<path d="M18.6821 9.73571L16.5562 10.5095L17.072 11.9267L19.1979 11.153L18.6821 9.73571Z" fill="#222034"/>
<path d="M27.1855 6.64071L25.0596 7.41446L25.5755 8.8317L27.7013 8.05795L27.1855 6.64071Z" fill="#222034"/>
<path d="M16.8141 11.2181L14.6882 11.9918L15.2041 13.4091L17.3299 12.6353L16.8141 11.2181Z" fill="#222034"/>
<path d="M29.5693 6.57558L27.4434 7.34933L27.9593 8.76657L30.0851 7.99282L29.5693 6.57558Z" fill="#222034"/>
<path d="M14.9462 12.7005L13.5289 13.2163L14.0448 14.6335L15.462 14.1177L14.9462 12.7005Z" fill="#222034"/>
<path d="M18.4893 11.4109L17.072 11.9267L17.3299 12.6353L18.7472 12.1195L18.4893 11.4109Z" fill="#222034"/>
<path d="M26.2841 8.57378L18.4893 11.4109L20.8105 17.7885L28.6053 14.9514L26.2841 8.57378Z" fill="#B7E1ED"/>
<path d="M27.7013 8.05795L26.2841 8.57378L26.542 9.2824L27.9593 8.76657L27.7013 8.05795Z" fill="#222034"/>
<path d="M31.2444 6.76836L29.8272 7.2842L30.343 8.70144L31.7603 8.18561L31.2444 6.76836Z" fill="#222034"/>
<path d="M13.7868 13.9249L12.3696 14.4407L12.8854 15.858L14.3027 15.3421L13.7868 13.9249Z" fill="#222034"/>
<path d="M16.6213 12.8932L15.2041 13.4091L15.462 14.1177L16.8792 13.6019L16.6213 12.8932Z" fill="#222034"/>
<path d="M18.7472 12.1195L16.6213 12.8932L18.6847 18.5622L20.8105 17.7885L18.7472 12.1195Z" fill="#B7E1ED"/>
<path d="M28.6679 8.50865L26.542 9.2824L28.6053 14.9514L30.7312 14.1776L28.6679 8.50865Z" fill="#B7E1ED"/>
<path d="M30.0851 7.99282L28.6679 8.50865L28.9258 9.21727L30.343 8.70144L30.0851 7.99282Z" fill="#222034"/>
<path d="M32.9196 6.96115L31.5024 7.47699L32.0182 8.89423L33.4354 8.37839L32.9196 6.96115Z" fill="#222034"/>
<path d="M12.6275 15.1494L11.9189 15.4073L12.6926 17.5331L13.4013 17.2752L12.6275 15.1494Z" fill="#222034"/>
<path d="M14.7534 14.3756L14.0448 14.6335L14.3027 15.3421L15.0113 15.0842L14.7534 14.3756Z" fill="#222034"/>
<path d="M16.8792 13.6019L14.7534 14.3756L16.8167 20.0446L18.9426 19.2708L16.8792 13.6019Z" fill="#B7E1ED"/>
<path d="M31.0516 8.44352L28.9258 9.21727L30.9891 14.8862L33.115 14.1125L31.0516 8.44352Z" fill="#B7E1ED"/>
<path d="M31.7603 8.18561L31.0516 8.44352L31.3096 9.15214L32.0182 8.89423L31.7603 8.18561Z" fill="#222034"/>
<path d="M33.8861 7.41186L33.1775 7.66977L33.9513 9.79563L34.6599 9.53772L33.8861 7.41186Z" fill="#222034"/>
<path d="M12.1768 16.1159L10.7596 16.6317L11.2754 18.049L12.6926 17.5331L12.1768 16.1159Z" fill="#222034"/>
<path d="M13.5941 15.6001L12.8854 15.858L13.1433 16.5666L13.852 16.3087L13.5941 15.6001Z" fill="#222034"/>
<path d="M15.0113 15.0842L13.5941 15.6001L16.4311 23.3949L17.8484 22.8791L15.0113 15.0842Z" fill="#B7E1ED"/>
<path d="M32.7268 8.63631L31.3096 9.15214L33.8887 16.2383L35.306 15.7225L32.7268 8.63631Z" fill="#B7E1ED"/>
<path d="M33.4354 8.37839L32.7268 8.63631L32.9847 9.34493L33.6933 9.08701L33.4354 8.37839Z" fill="#222034"/>
<path d="M35.5613 7.60464L34.144 8.12048L34.6599 9.53772L36.0771 9.02188L35.5613 7.60464Z" fill="#222034"/>
<path d="M11.0175 17.3404L10.3089 17.5983L11.0826 19.7241L11.7912 19.4662L11.0175 17.3404Z" fill="#222034"/>
<path d="M13.852 16.3087L13.1433 16.5666L16.4963 25.7787L17.2049 25.5208L13.852 16.3087Z" fill="#B7E1ED"/>
<path d="M33.6933 9.08701L32.9847 9.34493L35.8218 17.1398L36.5304 16.8818L33.6933 9.08701Z" fill="#B7E1ED"/>
<path d="M36.5278 8.05535L35.8192 8.31326L36.593 10.4391L37.3016 10.1812L36.5278 8.05535Z" fill="#222034"/>
<path d="M10.5668 18.3069L9.85816 18.5648L10.6319 20.6907L11.3405 20.4328L10.5668 18.3069Z" fill="#222034"/>
<path d="M11.984 17.7911L11.2754 18.049L11.5333 18.7576L12.2419 18.4997L11.984 17.7911Z" fill="#222034"/>
<path d="M13.4013 17.2752L11.984 17.7911L15.3369 27.0031L16.7542 26.4873L13.4013 17.2752Z" fill="#B7E1ED"/>
<path d="M35.3685 9.2798L33.9513 9.79563L36.7883 17.5905L38.2056 17.0746L35.3685 9.2798Z" fill="#B7E1ED"/>
<path d="M36.0771 9.02188L35.3685 9.2798L35.6264 9.98842L36.335 9.7305L36.0771 9.02188Z" fill="#222034"/>
<path d="M37.4944 8.50605L36.7857 8.76397L37.5595 10.8898L38.2681 10.6319L37.4944 8.50605Z" fill="#222034"/>
<path d="M10.1161 19.2734L9.40746 19.5313L10.1812 21.6572L10.8898 21.3993L10.1161 19.2734Z" fill="#222034"/>
<path d="M12.2419 18.4997L11.5333 18.7576L16.9496 33.6386L17.6582 33.3807L12.2419 18.4997Z" fill="#B7E1ED"/>
<path d="M36.335 9.7305L35.6264 9.98842L38.9793 19.2005L39.688 18.9426L36.335 9.7305Z" fill="#B7E1ED"/>
<path d="M38.4609 8.95675L37.7523 9.21467L38.526 11.3405L39.2347 11.0826L38.4609 8.95675Z" fill="#222034"/>
<path d="M9.66537 20.24L8.95675 20.4979L9.7305 22.6237L10.4391 22.3658L9.66537 20.24Z" fill="#222034"/>
<path d="M11.7912 19.4662L11.0826 19.7241L16.241 33.8965L16.9496 33.6386L11.7912 19.4662Z" fill="#B7E1ED"/>
<path d="M37.3016 10.1812L36.593 10.4391L41.7513 24.6115L42.4599 24.3536L37.3016 10.1812Z" fill="#B7E1ED"/>
<path d="M39.4274 9.40746L38.7188 9.66537L39.4926 11.7912L40.2012 11.5333L39.4274 9.40746Z" fill="#222034"/>
<path d="M9.21467 21.2065L8.50605 21.4644L9.2798 23.5903L9.98842 23.3324L9.21467 21.2065Z" fill="#222034"/>
<path d="M11.3405 20.4328L10.6319 20.6907L15.5323 34.1545L16.241 33.8965L11.3405 20.4328Z" fill="#B7E1ED"/>
<path d="M38.2681 10.6319L37.5595 10.8898L42.4599 24.3536L43.1685 24.0957L38.2681 10.6319Z" fill="#B7E1ED"/>
<path d="M40.394 9.85816L39.6854 10.1161L40.717 12.9506L41.4256 12.6926L40.394 9.85816Z" fill="#222034"/>
<path d="M8.76397 22.173L8.05535 22.431L9.08701 25.2654L9.79563 25.0075L8.76397 22.173Z" fill="#222034"/>
<path d="M10.8898 21.3993L10.1812 21.6572L15.0816 35.121L15.7902 34.8631L10.8898 21.3993Z" fill="#B7E1ED"/>
<path d="M20.1019 18.0464L18.6847 18.5622L18.9426 19.2708L20.3598 18.755L20.1019 18.0464Z" fill="#B7E1ED"/>
<path d="M29.314 14.6935L20.1019 18.0464L20.8756 20.1722L30.0877 16.8193L29.314 14.6935Z" fill="#306082"/>
<path d="M30.7312 14.1776L29.314 14.6935L29.5719 15.4021L30.9891 14.8862L30.7312 14.1776Z" fill="#B7E1ED"/>
<path d="M39.2347 11.0826L38.526 11.3405L43.1685 24.0957L43.8772 23.8378L39.2347 11.0826Z" fill="#B7E1ED"/>
<path d="M41.3605 10.3089L40.6519 10.5668L41.6836 13.4013L42.3922 13.1433L41.3605 10.3089Z" fill="#222034"/>
<path d="M8.31326 23.1396L7.60464 23.3975L8.63631 26.232L9.34493 25.9741L8.31326 23.1396Z" fill="#222034"/>
<path d="M10.4391 22.3658L9.7305 22.6237L14.6309 36.0875L15.3395 35.8296L10.4391 22.3658Z" fill="#B7E1ED"/>
<path d="M18.234 19.5287L16.8167 20.0446L17.0746 20.7532L18.4919 20.2374L18.234 19.5287Z" fill="#B7E1ED"/>
<path d="M20.3598 18.755L18.234 19.5287L18.7498 20.946L20.8756 20.1722L20.3598 18.755Z" fill="#306082"/>
<path d="M31.6977 14.6283L29.5719 15.4021L30.0877 16.8193L32.2136 16.0456L31.6977 14.6283Z" fill="#306082"/>
<path d="M33.115 14.1125L31.6977 14.6283L31.9557 15.3369L33.3729 14.8211L33.115 14.1125Z" fill="#B7E1ED"/>
<path d="M40.2012 11.5333L39.4926 11.7912L44.393 25.255L45.1016 24.9971L40.2012 11.5333Z" fill="#B7E1ED"/>
<path d="M42.3271 10.7596L41.6184 11.0175L42.6501 13.852L43.3587 13.5941L42.3271 10.7596Z" fill="#222034"/>
<path d="M9.98842 23.3324L9.2798 23.5903L17.7911 46.9748L18.4997 46.7168L9.98842 23.3324Z" fill="#B7E1ED"/>
<path d="M17.7832 20.4953L17.0746 20.7532L17.5905 22.1704L18.2991 21.9125L17.7832 20.4953Z" fill="#B7E1ED"/>
<path d="M18.4919 20.2374L17.7832 20.4953L19.0728 24.0384L19.7815 23.7805L18.4919 20.2374Z" fill="#306082"/>
<path d="M32.6643 15.079L31.9557 15.3369L33.2452 18.88L33.9539 18.6221L32.6643 15.079Z" fill="#306082"/>
<path d="M33.3729 14.8211L32.6643 15.079L32.9222 15.7876L33.6308 15.5297L33.3729 14.8211Z" fill="#B7E1ED"/>
<path d="M8.12048 24.8147L7.41186 25.0727L8.44352 27.9071L9.15214 27.6492L8.12048 24.8147Z" fill="#222034"/>
<path d="M20.167 20.4301L18.7498 20.946L19.2656 22.3632L20.6829 21.8474L20.167 20.4301Z" fill="#306082"/>
<path d="M31.505 16.3035L20.167 20.4301L20.4249 21.1388L31.7629 17.0121L31.505 16.3035Z" fill="#5F94A3"/>
<path d="M32.2136 16.0456L31.505 16.3035L32.0208 17.7207L32.7294 17.4628L32.2136 16.0456Z" fill="#306082"/>
<path d="M33.6308 15.5297L32.9222 15.7876L34.2118 19.3307L34.9204 19.0728L33.6308 15.5297Z" fill="#306082"/>
<path d="M41.4256 12.6926L40.717 12.9506L45.3595 25.7057L46.0681 25.4478L41.4256 12.6926Z" fill="#B7E1ED"/>
<path d="M43.5515 11.9189L42.8429 12.1768L43.8746 15.0113L44.5832 14.7534L43.5515 11.9189Z" fill="#222034"/>
<path d="M7.66977 25.7813L6.96115 26.0392L8.50865 30.2909L9.21727 30.033L7.66977 25.7813Z" fill="#222034"/>
<path d="M9.79563 25.0075L9.08701 25.2654L16.5666 45.8154L17.2752 45.5575L9.79563 25.0075Z" fill="#B7E1ED"/>
<path d="M18.2991 21.9125L17.5905 22.1704L18.6221 25.0049L19.3307 24.747L18.2991 21.9125Z" fill="#306082"/>
<path d="M31.7629 17.0121L20.4249 21.1388L20.6829 21.8474L32.0208 17.7207L31.7629 17.0121Z" fill="#9FCBD7"/>
<path d="M34.5974 15.9804L33.8887 16.2383L35.1783 19.7815L35.8869 19.5235L34.5974 15.9804Z" fill="#306082"/>
<path d="M35.306 15.7225L34.5974 15.9804L34.8553 16.6891L35.5639 16.4311L35.306 15.7225Z" fill="#B7E1ED"/>
<path d="M42.3922 13.1433L41.6836 13.4013L49.1631 33.9513L49.8718 33.6933L42.3922 13.1433Z" fill="#B7E1ED"/>
<path d="M44.518 12.3696L43.8094 12.6275L45.3569 16.8792L46.0655 16.6213L44.518 12.3696Z" fill="#222034"/>
<path d="M9.34493 25.9741L8.63631 26.232L15.6001 45.3647L16.3087 45.1068L9.34493 25.9741Z" fill="#B7E1ED"/>
<path d="M17.1398 23.137L16.4311 23.3949L16.6891 24.1035L17.3977 23.8456L17.1398 23.137Z" fill="#B7E1ED"/>
<path d="M17.8484 22.8791L17.1398 23.137L18.6873 27.3887L19.3959 27.1308L17.8484 22.8791Z" fill="#306082"/>
<path d="M19.9742 22.1053L19.2656 22.3632L19.7815 23.7805L20.4901 23.5225L19.9742 22.1053Z" fill="#306082"/>
<path d="M20.6829 21.8474L19.9742 22.1053L20.2322 22.8139L20.9408 22.556L20.6829 21.8474Z" fill="#5F94A3"/>
<path d="M32.0208 17.7207L20.6829 21.8474L30.9995 50.1922L42.3375 46.0655L32.0208 17.7207Z" fill="#B7E1ED"/>
<path d="M32.7294 17.4628L32.0208 17.7207L32.2787 18.4293L32.9873 18.1714L32.7294 17.4628Z" fill="#5F94A3"/>
<path d="M35.5639 16.4311L34.8553 16.6891L36.4028 20.9408L37.1114 20.6829L35.5639 16.4311Z" fill="#306082"/>
<path d="M43.3587 13.5941L42.6501 13.852L49.6139 32.9847L50.3225 32.7268L43.3587 13.5941Z" fill="#B7E1ED"/>
<path d="M7.47699 27.4564L6.76836 27.7143L8.57378 32.6747L9.2824 32.4168L7.47699 27.4564Z" fill="#222034"/>
<path d="M17.3977 23.8456L16.6891 24.1035L18.2366 28.3552L18.9452 28.0973L17.3977 23.8456Z" fill="#306082"/>
<path d="M20.9408 22.556L20.2322 22.8139L20.4901 23.5225L21.1987 23.2646L20.9408 22.556Z" fill="#9FCBD7"/>
<path d="M32.9873 18.1714L32.2787 18.4293L32.5366 19.138L33.2452 18.88L32.9873 18.1714Z" fill="#9FCBD7"/>
<path d="M36.5304 16.8818L35.8218 17.1398L37.3693 21.3915L38.0779 21.1336L36.5304 16.8818Z" fill="#306082"/>
<path d="M45.7425 13.5289L45.0339 13.7868L46.8393 18.7472L47.5479 18.4893L45.7425 13.5289Z" fill="#222034"/>
<path d="M9.15214 27.6492L8.44352 27.9071L14.3756 44.2054L15.0842 43.9475L9.15214 27.6492Z" fill="#B7E1ED"/>
<path d="M19.7815 23.7805L19.0728 24.0384L19.3307 24.747L20.0394 24.4891L19.7815 23.7805Z" fill="#5F94A3"/>
<path d="M20.4901 23.5225L19.7815 23.7805L20.0394 24.4891L20.748 24.2312L20.4901 23.5225Z" fill="#9FCBD7"/>
<path d="M21.1987 23.2646L20.4901 23.5225L23.3272 31.3174L24.0358 31.0595L21.1987 23.2646Z" fill="#B7E1ED"/>
<path d="M33.2452 18.88L32.5366 19.138L35.3737 26.9328L36.0823 26.6749L33.2452 18.88Z" fill="#B7E1ED"/>
<path d="M33.9539 18.6221L33.2452 18.88L33.5032 19.5887L34.2118 19.3307L33.9539 18.6221Z" fill="#5F94A3"/>
<path d="M37.497 17.3325L36.7883 17.5905L38.3358 21.8422L39.0445 21.5843L37.497 17.3325Z" fill="#306082"/>
<path d="M38.2056 17.0746L37.497 17.3325L37.7549 18.0412L38.4635 17.7832L38.2056 17.0746Z" fill="#B7E1ED"/>
<path d="M44.5832 14.7534L43.8746 15.0113L49.8066 31.3096L50.5153 31.0516L44.5832 14.7534Z" fill="#B7E1ED"/>
<path d="M7.2842 29.1316L6.57558 29.3895L11.9918 44.2705L12.7005 44.0126L7.2842 29.1316Z" fill="#222034"/>
<path d="M17.2049 25.5208L16.4963 25.7787L17.7859 29.3218L18.4945 29.0639L17.2049 25.5208Z" fill="#306082"/>
<path d="M19.3307 24.747L18.6221 25.0049L19.138 26.4222L19.8466 26.1642L19.3307 24.747Z" fill="#5F94A3"/>
<path d="M20.0394 24.4891L19.3307 24.747L19.5887 25.4556L20.2973 25.1977L20.0394 24.4891Z" fill="#9FCBD7"/>
<path d="M20.748 24.2312L20.0394 24.4891L22.3606 30.8667L23.0692 30.6088L20.748 24.2312Z" fill="#B7E1ED"/>
<path d="M34.2118 19.3307L33.5032 19.5887L33.7611 20.2973L34.4697 20.0394L34.2118 19.3307Z" fill="#9FCBD7"/>
<path d="M34.9204 19.0728L34.2118 19.3307L34.4697 20.0394L35.1783 19.7815L34.9204 19.0728Z" fill="#5F94A3"/>
<path d="M38.4635 17.7832L37.7549 18.0412L39.5603 23.0015L40.2689 22.7436L38.4635 17.7832Z" fill="#306082"/>
<path d="M46.967 14.6882L46.2583 14.9462L51.6746 29.8272L52.3832 29.5693L46.967 14.6882Z" fill="#222034"/>
<path d="M16.0456 26.7452L15.3369 27.0031L15.5949 27.7117L16.3035 27.4538L16.0456 26.7452Z" fill="#B7E1ED"/>
<path d="M16.7542 26.4873L16.0456 26.7452L17.851 31.7056L18.5596 31.4476L16.7542 26.4873Z" fill="#306082"/>
<path d="M20.2973 25.1977L19.5887 25.4556L21.3941 30.416L22.1027 30.158L20.2973 25.1977Z" fill="#B7E1ED"/>
<path d="M34.4697 20.0394L33.7611 20.2973L35.8244 25.9663L36.533 25.7083L34.4697 20.0394Z" fill="#B7E1ED"/>
<path d="M35.1783 19.7815L34.4697 20.0394L34.7276 20.748L35.4362 20.4901L35.1783 19.7815Z" fill="#9FCBD7"/>
<path d="M35.8869 19.5235L35.1783 19.7815L35.4362 20.4901L36.1449 20.2322L35.8869 19.5235Z" fill="#5F94A3"/>
<path d="M9.21727 30.033L8.50865 30.2909L12.8932 42.3375L13.6019 42.0795L9.21727 30.033Z" fill="#B7E1ED"/>
<path d="M16.3035 27.4538L15.5949 27.7117L17.1424 31.9635L17.851 31.7056L16.3035 27.4538Z" fill="#306082"/>
<path d="M19.8466 26.1642L19.138 26.4222L19.3959 27.1308L20.1045 26.8729L19.8466 26.1642Z" fill="#9FCBD7"/>
<path d="M35.4362 20.4901L34.7276 20.748L36.533 25.7083L37.2417 25.4504L35.4362 20.4901Z" fill="#B7E1ED"/>
<path d="M36.1449 20.2322L35.4362 20.4901L35.6942 21.1987L36.4028 20.9408L36.1449 20.2322Z" fill="#9FCBD7"/>
<path d="M39.688 18.9426L38.9793 19.2005L40.2689 22.7436L40.9775 22.4857L39.688 18.9426Z" fill="#306082"/>
<path d="M46.0655 16.6213L45.3569 16.8792L49.7415 28.9258L50.4501 28.6679L46.0655 16.6213Z" fill="#B7E1ED"/>
<path d="M7.34933 31.5154L6.64071 31.7733L10.5095 42.4026L11.2181 42.1447L7.34933 31.5154Z" fill="#222034"/>
<path d="M19.3959 27.1308L18.6873 27.3887L18.9452 28.0973L19.6538 27.8394L19.3959 27.1308Z" fill="#5F94A3"/>
<path d="M20.1045 26.8729L19.3959 27.1308L20.4275 29.9653L21.1362 29.7073L20.1045 26.8729Z" fill="#B7E1ED"/>
<path d="M36.4028 20.9408L35.6942 21.1987L36.7258 24.0332L37.4344 23.7753L36.4028 20.9408Z" fill="#B7E1ED"/>
<path d="M37.1114 20.6829L36.4028 20.9408L36.6607 21.6494L37.3693 21.3915L37.1114 20.6829Z" fill="#5F94A3"/>
<path d="M48.4493 16.5562L47.7407 16.8141L51.6095 27.4434L52.3181 27.1855L48.4493 16.5562Z" fill="#222034"/>
<path d="M18.9452 28.0973L18.2366 28.3552L18.4945 29.0639L19.2031 28.8059L18.9452 28.0973Z" fill="#5F94A3"/>
<path d="M19.6538 27.8394L18.9452 28.0973L19.2031 28.8059L19.9117 28.548L19.6538 27.8394Z" fill="#9FCBD7"/>
<path d="M37.3693 21.3915L36.6607 21.6494L36.9186 22.358L37.6272 22.1001L37.3693 21.3915Z" fill="#9FCBD7"/>
<path d="M38.0779 21.1336L37.3693 21.3915L37.6272 22.1001L38.3358 21.8422L38.0779 21.1336Z" fill="#5F94A3"/>
<path d="M9.2824 32.4168L8.57378 32.6747L11.4109 40.4695L12.1195 40.2116L9.2824 32.4168Z" fill="#B7E1ED"/>
<path d="M18.4945 29.0639L17.7859 29.3218L18.3017 30.739L19.0103 30.4811L18.4945 29.0639Z" fill="#5F94A3"/>
<path d="M19.2031 28.8059L18.4945 29.0639L19.0103 30.4811L19.7189 30.2232L19.2031 28.8059Z" fill="#9FCBD7"/>
<path d="M19.9117 28.548L19.2031 28.8059L19.7189 30.2232L20.4275 29.9653L19.9117 28.548Z" fill="#B7E1ED"/>
<path d="M37.6272 22.1001L36.9186 22.358L37.4344 23.7753L38.1431 23.5173L37.6272 22.1001Z" fill="#B7E1ED"/>
<path d="M38.3358 21.8422L37.6272 22.1001L38.1431 23.5173L38.8517 23.2594L38.3358 21.8422Z" fill="#9FCBD7"/>
<path d="M39.0445 21.5843L38.3358 21.8422L38.8517 23.2594L39.5603 23.0015L39.0445 21.5843Z" fill="#5F94A3"/>
<path d="M47.5479 18.4893L46.8393 18.7472L49.6764 26.542L50.385 26.2841L47.5479 18.4893Z" fill="#B7E1ED"/>
<path d="M7.41446 33.8991L6.70584 34.1571L9.02709 40.5346L9.73571 40.2767L7.41446 33.8991Z" fill="#222034"/>
<path d="M49.9317 18.4241L49.2231 18.6821L51.8022 25.7683L52.5109 25.5103L49.9317 18.4241Z" fill="#222034"/>
<path d="M21.1362 29.7073L18.3017 30.739L22.4284 42.0769L25.2628 41.0453L21.1362 29.7073Z" fill="#222034"/>
<path d="M40.9775 22.4857L36.7258 24.0332L40.8525 35.3711L45.1042 33.8236L40.9775 22.4857Z" fill="#222034"/>
<path d="M18.5596 31.4476L17.1424 31.9635L21.0111 42.5928L22.4284 42.0769L18.5596 31.4476Z" fill="#222034"/>
<path d="M22.1027 30.158L21.3941 30.416L25.0049 40.3367L25.7135 40.0787L22.1027 30.158Z" fill="#222034"/>
<path d="M23.0692 30.6088L22.3606 30.8667L25.4556 39.3701L26.1642 39.1122L23.0692 30.6088Z" fill="#222034"/>
<path d="M37.2417 25.4504L35.8244 25.9663L38.9194 34.4697L40.3367 33.9539L37.2417 25.4504Z" fill="#222034"/>
<path d="M17.6582 33.3807L15.5323 34.1545L15.7902 34.8631L17.9161 34.0893L17.6582 33.3807Z" fill="#222034"/>
<path d="M24.0358 31.0595L23.3272 31.3174L25.9063 38.4036L26.6149 38.1457L24.0358 31.0595Z" fill="#222034"/>
<path d="M36.0823 26.6749L35.3737 26.9328L37.9529 34.019L38.6615 33.7611L36.0823 26.6749Z" fill="#222034"/>
<path d="M43.8772 23.8378L41.7513 24.6115L42.0092 25.3202L44.1351 24.5464L43.8772 23.8378Z" fill="#222034"/>
<path d="M16.4989 34.6052L15.0816 35.121L17.145 40.79L18.5622 40.2741L16.4989 34.6052Z" fill="#222034"/>
<path d="M17.9161 34.0893L16.4989 34.6052L18.5622 40.2741L19.9794 39.7583L17.9161 34.0893Z" fill="#9BADB7"/>
<path d="M43.4265 24.8043L42.0092 25.3202L44.0725 30.9891L45.4898 30.4733L43.4265 24.8043Z" fill="#9BADB7"/>
<path d="M44.1351 24.5464L43.4265 24.8043L45.7477 31.1819L46.4563 30.924L44.1351 24.5464Z" fill="#222034"/>
<path d="M15.3395 35.8296L14.6309 36.0875L16.1784 40.3393L16.887 40.0813L15.3395 35.8296Z" fill="#222034"/>
<path d="M45.1016 24.9971L44.393 25.255L45.9405 29.5068L46.6491 29.2488L45.1016 24.9971Z" fill="#222034"/>
<path d="M46.0681 25.4478L45.3595 25.7057L46.3912 28.5402L47.0998 28.2823L46.0681 25.4478Z" fill="#222034"/>
<path d="M12.1195 40.2116L11.4109 40.4695L13.7321 46.8471L14.4407 46.5892L12.1195 40.2116Z" fill="#222034"/>
<path d="M50.385 26.2841L49.6764 26.542L51.4818 31.5024L52.1904 31.2444L50.385 26.2841Z" fill="#222034"/>
<path d="M47.0998 28.2823L46.3912 28.5402L48.9704 35.6264L49.679 35.3685L47.0998 28.2823Z" fill="#B7E1ED"/>
<path d="M16.887 40.0813L16.1784 40.3393L18.7576 47.4255L19.4662 47.1675L16.887 40.0813Z" fill="#B7E1ED"/>
<path d="M46.6491 29.2488L45.9405 29.5068L48.5197 36.593L49.2283 36.335L46.6491 29.2488Z" fill="#B7E1ED"/>
<path d="M13.6019 42.0795L12.8932 42.3375L14.6987 47.2978L15.4073 47.0399L13.6019 42.0795Z" fill="#222034"/>
<path d="M17.8536 40.532L17.145 40.79L19.7241 47.8762L20.4328 47.6183L17.8536 40.532Z" fill="#B7E1ED"/>
<path d="M19.9794 39.7583L17.8536 40.532L18.1115 41.2407L20.2374 40.4669L19.9794 39.7583Z" fill="#222034"/>
<path d="M45.4898 30.4733L44.0725 30.9891L44.3305 31.6977L45.7477 31.1819L45.4898 30.4733Z" fill="#222034"/>
<path d="M50.4501 28.6679L49.7415 28.9258L51.289 33.1775L51.9976 32.9196L50.4501 28.6679Z" fill="#222034"/>
<path d="M20.2374 40.4669L18.1115 41.2407L20.6907 48.3269L22.8165 47.5531L20.2374 40.4669Z" fill="#B7E1ED"/>
<path d="M26.6149 38.1457L25.9063 38.4036L30.2909 50.4501L30.9995 50.1922L26.6149 38.1457Z" fill="#B7E1ED"/>
<path d="M38.6615 33.7611L37.9529 34.019L42.0795 45.3569L42.7882 45.099L38.6615 33.7611Z" fill="#B7E1ED"/>
<path d="M46.4563 30.924L44.3305 31.6977L46.6517 38.0753L48.7776 37.3016L46.4563 30.924Z" fill="#B7E1ED"/>
<path d="M26.1642 39.1122L25.4556 39.3701L29.3244 49.9994L30.033 49.7415L26.1642 39.1122Z" fill="#B7E1ED"/>
<path d="M39.628 34.2118L38.9194 34.4697L42.7882 45.099L43.4968 44.8411L39.628 34.2118Z" fill="#B7E1ED"/>
<path d="M40.3367 33.9539L39.628 34.2118L39.886 34.9204L40.5946 34.6625L40.3367 33.9539Z" fill="#222034"/>
<path d="M15.0842 43.9475L14.3756 44.2054L15.4073 47.0399L16.1159 46.782L15.0842 43.9475Z" fill="#222034"/>
<path d="M25.7135 40.0787L25.0049 40.3367L28.6158 50.2573L29.3244 49.9994L25.7135 40.0787Z" fill="#B7E1ED"/>
<path d="M40.5946 34.6625L39.886 34.9204L43.4968 44.8411L44.2054 44.5832L40.5946 34.6625Z" fill="#B7E1ED"/>
<path d="M50.5153 31.0516L49.8066 31.3096L50.8383 34.144L51.5469 33.8861L50.5153 31.0516Z" fill="#222034"/>
<path d="M25.2628 41.0453L21.0111 42.5928L23.5903 49.679L27.842 48.1315L25.2628 41.0453Z" fill="#B7E1ED"/>
<path d="M45.1042 33.8236L40.8525 35.3711L43.1737 41.7487L47.4255 40.2012L45.1042 33.8236Z" fill="#B7E1ED"/>
<path d="M16.3087 45.1068L15.6001 45.3647L16.6317 48.1992L17.3404 47.9413L16.3087 45.1068Z" fill="#222034"/>
<path d="M50.3225 32.7268L49.6139 32.9847L50.6455 35.8192L51.3541 35.5613L50.3225 32.7268Z" fill="#222034"/>
<path d="M17.2752 45.5575L16.5666 45.8154L17.5983 48.6499L18.3069 48.392L17.2752 45.5575Z" fill="#222034"/>
<path d="M49.8718 33.6933L49.1631 33.9513L50.1948 36.7857L50.9034 36.5278L49.8718 33.6933Z" fill="#222034"/>
<path d="M18.4997 46.7168L17.7911 46.9748L18.5648 49.1006L19.2734 48.8427L18.4997 46.7168Z" fill="#222034"/>
<path d="M49.679 35.3685L48.9704 35.6264L49.7441 37.7523L50.4527 37.4944L49.679 35.3685Z" fill="#222034"/>
<path d="M19.4662 47.1675L18.7576 47.4255L19.5313 49.5513L20.24 49.2934L19.4662 47.1675Z" fill="#222034"/>
<path d="M49.2283 36.335L48.5197 36.593L49.2934 38.7188L50.002 38.4609L49.2283 36.335Z" fill="#222034"/>
<path d="M20.4328 47.6183L19.7241 47.8762L20.4979 50.002L21.2065 49.7441L20.4328 47.6183Z" fill="#222034"/>
<path d="M48.069 37.5595L46.6517 38.0753L46.9096 38.7839L48.3269 38.2681L48.069 37.5595Z" fill="#B7E1ED"/>
<path d="M48.7776 37.3016L48.069 37.5595L48.8427 39.6854L49.5513 39.4274L48.7776 37.3016Z" fill="#222034"/>
<path d="M21.3993 48.069L20.6907 48.3269L21.4644 50.4527L22.173 50.1948L21.3993 48.069Z" fill="#222034"/>
<path d="M22.8165 47.5531L21.3993 48.069L21.6572 48.7776L23.0744 48.2617L22.8165 47.5531Z" fill="#B7E1ED"/>
<path d="M47.6183 38.526L46.9096 38.7839L47.1675 39.4926L47.8762 39.2347L47.6183 38.526Z" fill="#B7E1ED"/>
<path d="M48.3269 38.2681L47.6183 38.526L48.392 40.6519L49.1006 40.394L48.3269 38.2681Z" fill="#222034"/>
<path d="M22.3658 48.5197L21.6572 48.7776L22.431 50.9034L23.1396 50.6455L22.3658 48.5197Z" fill="#222034"/>
<path d="M23.0744 48.2617L22.3658 48.5197L22.6237 49.2283L23.3324 48.9704L23.0744 48.2617Z" fill="#B7E1ED"/>
<path d="M47.8762 39.2347L47.1675 39.4926L47.9413 41.6184L48.6499 41.3605L47.8762 39.2347Z" fill="#222034"/>
<path d="M23.3324 48.9704L22.6237 49.2283L23.3975 51.3541L24.1061 51.0962L23.3324 48.9704Z" fill="#222034"/>
<path d="M46.7168 40.4591L43.1737 41.7487L43.4317 42.4573L46.9748 41.1677L46.7168 40.4591Z" fill="#B7E1ED"/>
<path d="M47.4255 40.2012L46.7168 40.4591L47.4906 42.585L48.1992 42.3271L47.4255 40.2012Z" fill="#222034"/>
<path d="M25.0075 49.1631L23.5903 49.679L24.1061 51.0962L25.5234 50.5804L25.0075 49.1631Z" fill="#222034"/>
<path d="M27.842 48.1315L25.0075 49.1631L25.2654 49.8718L28.0999 48.8401L27.842 48.1315Z" fill="#B7E1ED"/>
<path d="M45.5575 41.6836L43.4317 42.4573L43.6896 43.1659L45.8154 42.3922L45.5575 41.6836Z" fill="#B7E1ED"/>
<path d="M46.9748 41.1677L45.5575 41.6836L46.0734 43.1008L47.4906 42.585L46.9748 41.1677Z" fill="#222034"/>
<path d="M25.9741 49.6139L25.2654 49.8718L26.0392 51.9976L26.7478 51.7397L25.9741 49.6139Z" fill="#222034"/>
<path d="M28.0999 48.8401L25.9741 49.6139L26.232 50.3225L28.3578 49.5487L28.0999 48.8401Z" fill="#B7E1ED"/>
<path d="M45.1068 42.6501L43.6896 43.1659L43.9475 43.8746L45.3647 43.3587L45.1068 42.6501Z" fill="#B7E1ED"/>
<path d="M45.8154 42.3922L45.1068 42.6501L45.8806 44.776L46.5892 44.518L45.8154 42.3922Z" fill="#222034"/>
<path d="M25.5234 50.5804L24.8147 50.8383L25.0727 51.5469L25.7813 51.289L25.5234 50.5804Z" fill="#222034"/>
<path d="M27.6492 49.8066L26.232 50.3225L26.7478 51.7397L28.165 51.2239L27.6492 49.8066Z" fill="#222034"/>
<path d="M28.3578 49.5487L27.6492 49.8066L27.9071 50.5153L28.6158 50.2573L28.3578 49.5487Z" fill="#B7E1ED"/>
<path d="M45.3647 43.3587L43.9475 43.8746L44.4633 45.2918L45.8806 44.776L45.3647 43.3587Z" fill="#222034"/>
<path d="M46.782 42.8429L46.0734 43.1008L46.3313 43.8094L47.0399 43.5515L46.782 42.8429Z" fill="#222034"/>
<path d="M30.033 49.7415L27.9071 50.5153L28.423 51.9325L30.5488 51.1588L30.033 49.7415Z" fill="#222034"/>
<path d="M44.2054 44.5832L42.0795 45.3569L42.5954 46.7742L44.7212 46.0004L44.2054 44.5832Z" fill="#222034"/>
<path d="M28.165 51.2239L27.4564 51.4818L27.7143 52.1904L28.423 51.9325L28.165 51.2239Z" fill="#222034"/>
<path d="M32.4168 49.6764L30.2909 50.4501L30.8067 51.8674L32.9326 51.0936L32.4168 49.6764Z" fill="#222034"/>
<path d="M40.2116 46.8393L32.4168 49.6764L32.6747 50.385L40.4695 47.5479L40.2116 46.8393Z" fill="#B7E1ED"/>
<path d="M42.3375 46.0655L40.2116 46.8393L40.7274 48.2565L42.8533 47.4828L42.3375 46.0655Z" fill="#222034"/>
<path d="M45.1719 45.0339L44.4633 45.2918L44.7212 46.0004L45.4299 45.7425L45.1719 45.0339Z" fill="#222034"/>
<path d="M30.5488 51.1588L29.1316 51.6746L29.3895 52.3832L30.8067 51.8674L30.5488 51.1588Z" fill="#222034"/>
<path d="M40.4695 47.5479L32.6747 50.385L33.1905 51.8022L40.9854 48.9652L40.4695 47.5479Z" fill="#222034"/>
<path d="M44.0126 46.2583L42.5954 46.7742L42.8533 47.4828L44.2705 46.967L44.0126 46.2583Z" fill="#222034"/>
<path d="M32.9326 51.0936L31.5154 51.6095L31.7733 52.3181L33.1905 51.8022L32.9326 51.0936Z" fill="#222034"/>
<path d="M42.1447 47.7407L40.7274 48.2565L40.9854 48.9652L42.4026 48.4493L42.1447 47.7407Z" fill="#222034"/>
<path d="M40.2767 49.2231L33.8991 51.5443L34.1571 52.2529L40.5346 49.9317L40.2767 49.2231Z" fill="#222034"/>
</svg>
