<svg width="144" height="59" viewBox="0 0 144 59" fill="none" xmlns="http://www.w3.org/2000/svg">
<path d="M24.8017 6.70582L18.4241 9.02707L19.1979 11.1529L25.5755 8.83168L24.8017 6.70582Z" fill="#222034"/>
<path d="M18.6821 9.73569L16.5562 10.5094L17.072 11.9267L19.1979 11.1529L18.6821 9.73569Z" fill="#222034"/>
<path d="M27.1855 6.64069L25.0596 7.41444L25.5755 8.83168L27.7013 8.05793L27.1855 6.64069Z" fill="#222034"/>
<path d="M16.8141 11.2181L14.6882 11.9918L15.2041 13.4091L17.3299 12.6353L16.8141 11.2181Z" fill="#222034"/>
<path d="M29.5693 6.57556L27.4434 7.34931L27.9593 8.76655L30.0851 7.9928L29.5693 6.57556Z" fill="#222034"/>
<path d="M14.9462 12.7004L13.5289 13.2163L14.0448 14.6335L15.462 14.1177L14.9462 12.7004Z" fill="#222034"/>
<path d="M18.4893 11.4109L17.072 11.9267L17.3299 12.6353L18.7472 12.1195L18.4893 11.4109Z" fill="#222034"/>
<path d="M26.2841 8.57377L18.4893 11.4109L20.8105 17.7884L28.6053 14.9514L26.2841 8.57377Z" fill="#B7E1ED"/>
<path d="M27.7013 8.05793L26.2841 8.57377L26.542 9.28239L27.9593 8.76655L27.7013 8.05793Z" fill="#222034"/>
<path d="M31.2444 6.76835L29.8272 7.28418L30.343 8.70142L31.7603 8.18559L31.2444 6.76835Z" fill="#222034"/>
<path d="M13.7868 13.9249L12.3696 14.4407L12.8854 15.858L14.3027 15.3421L13.7868 13.9249Z" fill="#222034"/>
<path d="M16.6213 12.8932L15.2041 13.4091L15.462 14.1177L16.8792 13.6018L16.6213 12.8932Z" fill="#222034"/>
<path d="M18.7472 12.1195L16.6213 12.8932L18.6847 18.5622L20.8105 17.7884L18.7472 12.1195Z" fill="#B7E1ED"/>
<path d="M28.6679 8.50864L26.542 9.28239L28.6053 14.9514L30.7312 14.1776L28.6679 8.50864Z" fill="#B7E1ED"/>
<path d="M30.0851 7.9928L28.6679 8.50864L28.9258 9.21726L30.343 8.70142L30.0851 7.9928Z" fill="#222034"/>
<path d="M32.9196 6.96114L31.5024 7.47697L32.0182 8.89421L33.4354 8.37838L32.9196 6.96114Z" fill="#222034"/>
<path d="M12.6275 15.1493L11.9189 15.4073L12.6926 17.5331L13.4013 17.2752L12.6275 15.1493Z" fill="#222034"/>
<path d="M14.7534 14.3756L14.0448 14.6335L14.3027 15.3421L15.0113 15.0842L14.7534 14.3756Z" fill="#222034"/>
<path d="M16.8792 13.6018L14.7534 14.3756L16.8167 20.0446L18.9426 19.2708L16.8792 13.6018Z" fill="#B7E1ED"/>
<path d="M31.0516 8.44351L28.9258 9.21726L30.9891 14.8862L33.115 14.1125L31.0516 8.44351Z" fill="#B7E1ED"/>
<path d="M31.7603 8.18559L31.0516 8.44351L31.3096 9.15213L32.0182 8.89421L31.7603 8.18559Z" fill="#222034"/>
<path d="M33.8861 7.41184L33.1775 7.66976L33.9513 9.79562L34.6599 9.5377L33.8861 7.41184Z" fill="#222034"/>
<path d="M12.1768 16.1159L10.7596 16.6317L11.2754 18.049L12.6926 17.5331L12.1768 16.1159Z" fill="#222034"/>
<path d="M13.5941 15.6L12.8854 15.858L13.1433 16.5666L13.852 16.3087L13.5941 15.6Z" fill="#222034"/>
<path d="M15.0113 15.0842L13.5941 15.6L16.4311 23.3949L17.8484 22.879L15.0113 15.0842Z" fill="#B7E1ED"/>
<path d="M32.7268 8.63629L31.3096 9.15213L33.8887 16.2383L35.306 15.7225L32.7268 8.63629Z" fill="#B7E1ED"/>
<path d="M33.4354 8.37838L32.7268 8.63629L32.9847 9.34491L33.6933 9.087L33.4354 8.37838Z" fill="#222034"/>
<path d="M35.5613 7.60463L34.144 8.12046L34.6599 9.5377L36.0771 9.02187L35.5613 7.60463Z" fill="#222034"/>
<path d="M11.0175 17.3403L10.3089 17.5983L11.0826 19.7241L11.7912 19.4662L11.0175 17.3403Z" fill="#222034"/>
<path d="M13.852 16.3087L13.1433 16.5666L16.4963 25.7787L17.2049 25.5207L13.852 16.3087Z" fill="#B7E1ED"/>
<path d="M33.6933 9.087L32.9847 9.34491L35.8218 17.1397L36.5304 16.8818L33.6933 9.087Z" fill="#B7E1ED"/>
<path d="M36.5278 8.05533L35.8192 8.31325L36.593 10.4391L37.3016 10.1812L36.5278 8.05533Z" fill="#222034"/>
<path d="M10.5668 18.3069L9.85816 18.5648L10.6319 20.6907L11.3405 20.4327L10.5668 18.3069Z" fill="#222034"/>
<path d="M11.984 17.791L11.2754 18.049L11.5333 18.7576L12.2419 18.4997L11.984 17.791Z" fill="#222034"/>
<path d="M13.4013 17.2752L11.984 17.791L15.3369 27.0031L16.7542 26.4873L13.4013 17.2752Z" fill="#B7E1ED"/>
<path d="M35.3685 9.27978L33.9513 9.79562L36.7883 17.5904L38.2056 17.0746L35.3685 9.27978Z" fill="#B7E1ED"/>
<path d="M36.0771 9.02187L35.3685 9.27978L35.6264 9.98841L36.335 9.73049L36.0771 9.02187Z" fill="#222034"/>
<path d="M37.4944 8.50603L36.7857 8.76395L37.5595 10.8898L38.2681 10.6319L37.4944 8.50603Z" fill="#222034"/>
<path d="M10.1161 19.2734L9.40746 19.5313L10.1812 21.6572L10.8898 21.3993L10.1161 19.2734Z" fill="#222034"/>
<path d="M12.2419 18.4997L11.5333 18.7576L16.9496 33.6386L17.6582 33.3807L12.2419 18.4997Z" fill="#B7E1ED"/>
<path d="M36.335 9.73049L35.6264 9.98841L38.9793 19.2005L39.688 18.9426L36.335 9.73049Z" fill="#B7E1ED"/>
<path d="M38.4609 8.95674L37.7523 9.21465L38.526 11.3405L39.2347 11.0826L38.4609 8.95674Z" fill="#222034"/>
<path d="M9.66537 20.2399L8.95675 20.4979L9.7305 22.6237L10.4391 22.3658L9.66537 20.2399Z" fill="#222034"/>
<path d="M11.7912 19.4662L11.0826 19.7241L16.241 33.8965L16.9496 33.6386L11.7912 19.4662Z" fill="#B7E1ED"/>
<path d="M37.3016 10.1812L36.593 10.4391L41.7513 24.6115L42.4599 24.3536L37.3016 10.1812Z" fill="#B7E1ED"/>
<path d="M39.4274 9.40744L38.7188 9.66536L39.4926 11.7912L40.2012 11.5333L39.4274 9.40744Z" fill="#222034"/>
<path d="M9.21467 21.2065L8.50605 21.4644L9.2798 23.5903L9.98842 23.3323L9.21467 21.2065Z" fill="#222034"/>
<path d="M11.3405 20.4327L10.6319 20.6907L15.5323 34.1544L16.241 33.8965L11.3405 20.4327Z" fill="#B7E1ED"/>
<path d="M38.2681 10.6319L37.5595 10.8898L42.4599 24.3536L43.1685 24.0957L38.2681 10.6319Z" fill="#B7E1ED"/>
<path d="M40.394 9.85815L39.6854 10.1161L40.717 12.9505L41.4256 12.6926L40.394 9.85815Z" fill="#222034"/>
<path d="M8.76397 22.173L8.05535 22.4309L9.08701 25.2654L9.79563 25.0075L8.76397 22.173Z" fill="#222034"/>
<path d="M10.8898 21.3993L10.1812 21.6572L15.0816 35.121L15.7902 34.8631L10.8898 21.3993Z" fill="#B7E1ED"/>
<path d="M20.1019 18.0464L18.6847 18.5622L18.9426 19.2708L20.3598 18.755L20.1019 18.0464Z" fill="#B7E1ED"/>
<path d="M29.314 14.6934L20.1019 18.0464L20.8756 20.1722L30.0877 16.8193L29.314 14.6934Z" fill="#306082"/>
<path d="M30.7312 14.1776L29.314 14.6934L29.5719 15.4021L30.9891 14.8862L30.7312 14.1776Z" fill="#B7E1ED"/>
<path d="M39.2347 11.0826L38.526 11.3405L43.1685 24.0957L43.8772 23.8378L39.2347 11.0826Z" fill="#B7E1ED"/>
<path d="M41.3605 10.3088L40.6519 10.5668L41.6836 13.4012L42.3922 13.1433L41.3605 10.3088Z" fill="#222034"/>
<path d="M8.31326 23.1396L7.60464 23.3975L8.63631 26.232L9.34493 25.974L8.31326 23.1396Z" fill="#222034"/>
<path d="M10.4391 22.3658L9.7305 22.6237L14.6309 36.0875L15.3395 35.8296L10.4391 22.3658Z" fill="#B7E1ED"/>
<path d="M18.234 19.5287L16.8167 20.0446L17.0746 20.7532L18.4919 20.2373L18.234 19.5287Z" fill="#B7E1ED"/>
<path d="M20.3598 18.755L18.234 19.5287L18.7498 20.946L20.8756 20.1722L20.3598 18.755Z" fill="#306082"/>
<path d="M31.6977 14.6283L29.5719 15.4021L30.0877 16.8193L32.2136 16.0455L31.6977 14.6283Z" fill="#306082"/>
<path d="M33.115 14.1125L31.6977 14.6283L31.9557 15.3369L33.3729 14.8211L33.115 14.1125Z" fill="#B7E1ED"/>
<path d="M40.2012 11.5333L39.4926 11.7912L44.393 25.255L45.1016 24.9971L40.2012 11.5333Z" fill="#B7E1ED"/>
<path d="M42.3271 10.7596L41.6184 11.0175L42.6501 13.852L43.3587 13.594L42.3271 10.7596Z" fill="#222034"/>
<path d="M9.98842 23.3323L9.2798 23.5903L17.7911 46.9747L18.4997 46.7168L9.98842 23.3323Z" fill="#B7E1ED"/>
<path d="M17.7832 20.4953L17.0746 20.7532L17.5905 22.1704L18.2991 21.9125L17.7832 20.4953Z" fill="#B7E1ED"/>
<path d="M18.4919 20.2373L17.7832 20.4953L19.0728 24.0384L19.7815 23.7804L18.4919 20.2373Z" fill="#306082"/>
<path d="M32.6643 15.079L31.9557 15.3369L33.2452 18.88L33.9539 18.6221L32.6643 15.079Z" fill="#306082"/>
<path d="M33.3729 14.8211L32.6643 15.079L32.9222 15.7876L33.6308 15.5297L33.3729 14.8211Z" fill="#B7E1ED"/>
<path d="M8.12048 24.8147L7.41186 25.0726L8.44352 27.9071L9.15214 27.6492L8.12048 24.8147Z" fill="#222034"/>
<path d="M20.167 20.4301L18.7498 20.946L19.2656 22.3632L20.6829 21.8474L20.167 20.4301Z" fill="#306082"/>
<path d="M31.505 16.3035L20.167 20.4301L20.4249 21.1388L31.7629 17.0121L31.505 16.3035Z" fill="#5F94A3"/>
<path d="M32.2136 16.0455L31.505 16.3035L32.0208 17.7207L32.7294 17.4628L32.2136 16.0455Z" fill="#306082"/>
<path d="M33.6308 15.5297L32.9222 15.7876L34.2118 19.3307L34.9204 19.0728L33.6308 15.5297Z" fill="#306082"/>
<path d="M41.4256 12.6926L40.717 12.9505L45.3595 25.7057L46.0681 25.4478L41.4256 12.6926Z" fill="#B7E1ED"/>
<path d="M43.5515 11.9189L42.8429 12.1768L43.8746 15.0113L44.5832 14.7534L43.5515 11.9189Z" fill="#222034"/>
<path d="M7.66977 25.7813L6.96115 26.0392L8.50865 30.2909L9.21727 30.033L7.66977 25.7813Z" fill="#222034"/>
<path d="M9.79563 25.0075L9.08701 25.2654L16.5666 45.8154L17.2752 45.5575L9.79563 25.0075Z" fill="#B7E1ED"/>
<path d="M18.2991 21.9125L17.5905 22.1704L18.6221 25.0049L19.3307 24.747L18.2991 21.9125Z" fill="#306082"/>
<path d="M31.7629 17.0121L20.4249 21.1388L20.6829 21.8474L32.0208 17.7207L31.7629 17.0121Z" fill="#9FCBD7"/>
<path d="M34.5974 15.9804L33.8887 16.2383L35.1783 19.7814L35.8869 19.5235L34.5974 15.9804Z" fill="#306082"/>
<path d="M35.306 15.7225L34.5974 15.9804L34.8553 16.689L35.5639 16.4311L35.306 15.7225Z" fill="#B7E1ED"/>
<path d="M42.3922 13.1433L41.6836 13.4012L49.1631 33.9512L49.8718 33.6933L42.3922 13.1433Z" fill="#B7E1ED"/>
<path d="M44.518 12.3696L43.8094 12.6275L45.3569 16.8792L46.0655 16.6213L44.518 12.3696Z" fill="#222034"/>
<path d="M9.34493 25.974L8.63631 26.232L15.6001 45.3647L16.3087 45.1068L9.34493 25.974Z" fill="#B7E1ED"/>
<path d="M17.1398 23.137L16.4311 23.3949L16.6891 24.1035L17.3977 23.8456L17.1398 23.137Z" fill="#B7E1ED"/>
<path d="M17.8484 22.879L17.1398 23.137L18.6873 27.3887L19.3959 27.1308L17.8484 22.879Z" fill="#306082"/>
<path d="M19.9742 22.1053L19.2656 22.3632L19.7815 23.7804L20.4901 23.5225L19.9742 22.1053Z" fill="#306082"/>
<path d="M20.6829 21.8474L19.9742 22.1053L20.2322 22.8139L20.9408 22.556L20.6829 21.8474Z" fill="#5F94A3"/>
<path d="M32.0208 17.7207L20.6829 21.8474L30.9995 50.1922L42.3375 46.0655L32.0208 17.7207Z" fill="#B7E1ED"/>
<path d="M32.7294 17.4628L32.0208 17.7207L32.2787 18.4293L32.9873 18.1714L32.7294 17.4628Z" fill="#5F94A3"/>
<path d="M35.5639 16.4311L34.8553 16.689L36.4028 20.9408L37.1114 20.6828L35.5639 16.4311Z" fill="#306082"/>
<path d="M43.3587 13.594L42.6501 13.852L49.6139 32.9847L50.3225 32.7268L43.3587 13.594Z" fill="#B7E1ED"/>
<path d="M7.47699 27.4564L6.76836 27.7143L8.57378 32.6747L9.2824 32.4168L7.47699 27.4564Z" fill="#222034"/>
<path d="M17.3977 23.8456L16.6891 24.1035L18.2366 28.3552L18.9452 28.0973L17.3977 23.8456Z" fill="#306082"/>
<path d="M20.9408 22.556L20.2322 22.8139L20.4901 23.5225L21.1987 23.2646L20.9408 22.556Z" fill="#9FCBD7"/>
<path d="M32.9873 18.1714L32.2787 18.4293L32.5366 19.1379L33.2452 18.88L32.9873 18.1714Z" fill="#9FCBD7"/>
<path d="M36.5304 16.8818L35.8218 17.1397L37.3693 21.3915L38.0779 21.1335L36.5304 16.8818Z" fill="#306082"/>
<path d="M45.7425 13.5289L45.0339 13.7868L46.8393 18.7472L47.5479 18.4893L45.7425 13.5289Z" fill="#222034"/>
<path d="M9.15214 27.6492L8.44352 27.9071L14.3756 44.2054L15.0842 43.9475L9.15214 27.6492Z" fill="#B7E1ED"/>
<path d="M19.7815 23.7804L19.0728 24.0384L19.3307 24.747L20.0394 24.4891L19.7815 23.7804Z" fill="#5F94A3"/>
<path d="M20.4901 23.5225L19.7815 23.7804L20.0394 24.4891L20.748 24.2312L20.4901 23.5225Z" fill="#9FCBD7"/>
<path d="M21.1987 23.2646L20.4901 23.5225L23.3272 31.3174L24.0358 31.0594L21.1987 23.2646Z" fill="#B7E1ED"/>
<path d="M33.2452 18.88L32.5366 19.1379L35.3737 26.9328L36.0823 26.6749L33.2452 18.88Z" fill="#B7E1ED"/>
<path d="M33.9539 18.6221L33.2452 18.88L33.5032 19.5886L34.2118 19.3307L33.9539 18.6221Z" fill="#5F94A3"/>
<path d="M37.497 17.3325L36.7883 17.5904L38.3358 21.8422L39.0445 21.5843L37.497 17.3325Z" fill="#306082"/>
<path d="M38.2056 17.0746L37.497 17.3325L37.7549 18.0411L38.4635 17.7832L38.2056 17.0746Z" fill="#B7E1ED"/>
<path d="M44.5832 14.7534L43.8746 15.0113L49.8066 31.3096L50.5153 31.0516L44.5832 14.7534Z" fill="#B7E1ED"/>
<path d="M7.2842 29.1316L6.57558 29.3895L11.9918 44.2705L12.7005 44.0126L7.2842 29.1316Z" fill="#222034"/>
<path d="M17.2049 25.5207L16.4963 25.7787L17.7859 29.3218L18.4945 29.0638L17.2049 25.5207Z" fill="#306082"/>
<path d="M19.3307 24.747L18.6221 25.0049L19.138 26.4221L19.8466 26.1642L19.3307 24.747Z" fill="#5F94A3"/>
<path d="M20.0394 24.4891L19.3307 24.747L19.5887 25.4556L20.2973 25.1977L20.0394 24.4891Z" fill="#9FCBD7"/>
<path d="M20.748 24.2312L20.0394 24.4891L22.3606 30.8667L23.0692 30.6087L20.748 24.2312Z" fill="#B7E1ED"/>
<path d="M34.2118 19.3307L33.5032 19.5886L33.7611 20.2973L34.4697 20.0394L34.2118 19.3307Z" fill="#9FCBD7"/>
<path d="M34.9204 19.0728L34.2118 19.3307L34.4697 20.0394L35.1783 19.7814L34.9204 19.0728Z" fill="#5F94A3"/>
<path d="M38.4635 17.7832L37.7549 18.0411L39.5603 23.0015L40.2689 22.7436L38.4635 17.7832Z" fill="#306082"/>
<path d="M46.967 14.6882L46.2583 14.9461L51.6746 29.8272L52.3832 29.5693L46.967 14.6882Z" fill="#222034"/>
<path d="M16.0456 26.7452L15.3369 27.0031L15.5949 27.7117L16.3035 27.4538L16.0456 26.7452Z" fill="#B7E1ED"/>
<path d="M16.7542 26.4873L16.0456 26.7452L17.851 31.7055L18.5596 31.4476L16.7542 26.4873Z" fill="#306082"/>
<path d="M20.2973 25.1977L19.5887 25.4556L21.3941 30.416L22.1027 30.158L20.2973 25.1977Z" fill="#B7E1ED"/>
<path d="M34.4697 20.0394L33.7611 20.2973L35.8244 25.9662L36.533 25.7083L34.4697 20.0394Z" fill="#B7E1ED"/>
<path d="M35.1783 19.7814L34.4697 20.0394L34.7276 20.748L35.4362 20.4901L35.1783 19.7814Z" fill="#9FCBD7"/>
<path d="M35.8869 19.5235L35.1783 19.7814L35.4362 20.4901L36.1449 20.2321L35.8869 19.5235Z" fill="#5F94A3"/>
<path d="M9.21727 30.033L8.50865 30.2909L12.8932 42.3374L13.6019 42.0795L9.21727 30.033Z" fill="#B7E1ED"/>
<path d="M16.3035 27.4538L15.5949 27.7117L17.1424 31.9635L17.851 31.7055L16.3035 27.4538Z" fill="#306082"/>
<path d="M19.8466 26.1642L19.138 26.4221L19.3959 27.1308L20.1045 26.8728L19.8466 26.1642Z" fill="#9FCBD7"/>
<path d="M35.4362 20.4901L34.7276 20.748L36.533 25.7083L37.2417 25.4504L35.4362 20.4901Z" fill="#B7E1ED"/>
<path d="M36.1449 20.2321L35.4362 20.4901L35.6942 21.1987L36.4028 20.9408L36.1449 20.2321Z" fill="#9FCBD7"/>
<path d="M39.688 18.9426L38.9793 19.2005L40.2689 22.7436L40.9775 22.4857L39.688 18.9426Z" fill="#306082"/>
<path d="M46.0655 16.6213L45.3569 16.8792L49.7415 28.9258L50.4501 28.6679L46.0655 16.6213Z" fill="#B7E1ED"/>
<path d="M7.34933 31.5154L6.64071 31.7733L10.5095 42.4026L11.2181 42.1447L7.34933 31.5154Z" fill="#222034"/>
<path d="M19.3959 27.1308L18.6873 27.3887L18.9452 28.0973L19.6538 27.8394L19.3959 27.1308Z" fill="#5F94A3"/>
<path d="M20.1045 26.8728L19.3959 27.1308L20.4275 29.9652L21.1362 29.7073L20.1045 26.8728Z" fill="#B7E1ED"/>
<path d="M36.4028 20.9408L35.6942 21.1987L36.7258 24.0332L37.4344 23.7752L36.4028 20.9408Z" fill="#B7E1ED"/>
<path d="M37.1114 20.6828L36.4028 20.9408L36.6607 21.6494L37.3693 21.3915L37.1114 20.6828Z" fill="#5F94A3"/>
<path d="M48.4493 16.5562L47.7407 16.8141L51.6095 27.4434L52.3181 27.1855L48.4493 16.5562Z" fill="#222034"/>
<path d="M18.9452 28.0973L18.2366 28.3552L18.4945 29.0638L19.2031 28.8059L18.9452 28.0973Z" fill="#5F94A3"/>
<path d="M19.6538 27.8394L18.9452 28.0973L19.2031 28.8059L19.9117 28.548L19.6538 27.8394Z" fill="#9FCBD7"/>
<path d="M37.3693 21.3915L36.6607 21.6494L36.9186 22.358L37.6272 22.1001L37.3693 21.3915Z" fill="#9FCBD7"/>
<path d="M38.0779 21.1335L37.3693 21.3915L37.6272 22.1001L38.3358 21.8422L38.0779 21.1335Z" fill="#5F94A3"/>
<path d="M9.2824 32.4168L8.57378 32.6747L11.4109 40.4695L12.1195 40.2116L9.2824 32.4168Z" fill="#B7E1ED"/>
<path d="M18.4945 29.0638L17.7859 29.3218L18.3017 30.739L19.0103 30.4811L18.4945 29.0638Z" fill="#5F94A3"/>
<path d="M19.2031 28.8059L18.4945 29.0638L19.0103 30.4811L19.7189 30.2232L19.2031 28.8059Z" fill="#9FCBD7"/>
<path d="M19.9117 28.548L19.2031 28.8059L19.7189 30.2232L20.4275 29.9652L19.9117 28.548Z" fill="#B7E1ED"/>
<path d="M37.6272 22.1001L36.9186 22.358L37.4344 23.7752L38.1431 23.5173L37.6272 22.1001Z" fill="#B7E1ED"/>
<path d="M38.3358 21.8422L37.6272 22.1001L38.1431 23.5173L38.8517 23.2594L38.3358 21.8422Z" fill="#9FCBD7"/>
<path d="M39.0445 21.5843L38.3358 21.8422L38.8517 23.2594L39.5603 23.0015L39.0445 21.5843Z" fill="#5F94A3"/>
<path d="M47.5479 18.4893L46.8393 18.7472L49.6764 26.542L50.385 26.2841L47.5479 18.4893Z" fill="#B7E1ED"/>
<path d="M7.41446 33.8991L6.70584 34.157L9.02709 40.5346L9.73571 40.2767L7.41446 33.8991Z" fill="#222034"/>
<path d="M49.9317 18.4241L49.2231 18.682L51.8022 25.7682L52.5109 25.5103L49.9317 18.4241Z" fill="#222034"/>
<path d="M21.1362 29.7073L18.3017 30.739L22.4284 42.0769L25.2628 41.0453L21.1362 29.7073Z" fill="#222034"/>
<path d="M40.9775 22.4857L36.7258 24.0332L40.8525 35.3711L45.1042 33.8236L40.9775 22.4857Z" fill="#222034"/>
<path d="M18.5596 31.4476L17.1424 31.9635L21.0111 42.5928L22.4284 42.0769L18.5596 31.4476Z" fill="#222034"/>
<path d="M22.1027 30.158L21.3941 30.416L25.0049 40.3366L25.7135 40.0787L22.1027 30.158Z" fill="#222034"/>
<path d="M23.0692 30.6087L22.3606 30.8667L25.4556 39.3701L26.1642 39.1122L23.0692 30.6087Z" fill="#222034"/>
<path d="M37.2417 25.4504L35.8244 25.9662L38.9194 34.4697L40.3367 33.9538L37.2417 25.4504Z" fill="#222034"/>
<path d="M17.6582 33.3807L15.5323 34.1544L15.7902 34.8631L17.9161 34.0893L17.6582 33.3807Z" fill="#222034"/>
<path d="M24.0358 31.0594L23.3272 31.3174L25.9063 38.4036L26.6149 38.1456L24.0358 31.0594Z" fill="#222034"/>
<path d="M36.0823 26.6749L35.3737 26.9328L37.9529 34.019L38.6615 33.7611L36.0823 26.6749Z" fill="#222034"/>
<path d="M43.8772 23.8378L41.7513 24.6115L42.0092 25.3201L44.1351 24.5464L43.8772 23.8378Z" fill="#222034"/>
<path d="M16.4989 34.6051L15.0816 35.121L17.145 40.7899L18.5622 40.2741L16.4989 34.6051Z" fill="#222034"/>
<path d="M17.9161 34.0893L16.4989 34.6051L18.5622 40.2741L19.9794 39.7583L17.9161 34.0893Z" fill="#9BADB7"/>
<path d="M43.4265 24.8043L42.0092 25.3201L44.0725 30.9891L45.4898 30.4733L43.4265 24.8043Z" fill="#9BADB7"/>
<path d="M44.1351 24.5464L43.4265 24.8043L45.7477 31.1819L46.4563 30.924L44.1351 24.5464Z" fill="#222034"/>
<path d="M15.3395 35.8296L14.6309 36.0875L16.1784 40.3392L16.887 40.0813L15.3395 35.8296Z" fill="#222034"/>
<path d="M45.1016 24.9971L44.393 25.255L45.9405 29.5067L46.6491 29.2488L45.1016 24.9971Z" fill="#222034"/>
<path d="M46.0681 25.4478L45.3595 25.7057L46.3912 28.5402L47.0998 28.2823L46.0681 25.4478Z" fill="#222034"/>
<path d="M12.1195 40.2116L11.4109 40.4695L13.7321 46.8471L14.4407 46.5892L12.1195 40.2116Z" fill="#222034"/>
<path d="M50.385 26.2841L49.6764 26.542L51.4818 31.5023L52.1904 31.2444L50.385 26.2841Z" fill="#222034"/>
<path d="M47.0998 28.2823L46.3912 28.5402L48.9704 35.6264L49.679 35.3685L47.0998 28.2823Z" fill="#B7E1ED"/>
<path d="M16.887 40.0813L16.1784 40.3392L18.7576 47.4254L19.4662 47.1675L16.887 40.0813Z" fill="#B7E1ED"/>
<path d="M46.6491 29.2488L45.9405 29.5067L48.5197 36.5929L49.2283 36.335L46.6491 29.2488Z" fill="#B7E1ED"/>
<path d="M13.6019 42.0795L12.8932 42.3374L14.6987 47.2978L15.4073 47.0399L13.6019 42.0795Z" fill="#222034"/>
<path d="M17.8536 40.532L17.145 40.7899L19.7241 47.8762L20.4328 47.6182L17.8536 40.532Z" fill="#B7E1ED"/>
<path d="M19.9794 39.7583L17.8536 40.532L18.1115 41.2406L20.2374 40.4669L19.9794 39.7583Z" fill="#222034"/>
<path d="M45.4898 30.4733L44.0725 30.9891L44.3305 31.6977L45.7477 31.1819L45.4898 30.4733Z" fill="#222034"/>
<path d="M50.4501 28.6679L49.7415 28.9258L51.289 33.1775L51.9976 32.9196L50.4501 28.6679Z" fill="#222034"/>
<path d="M20.2374 40.4669L18.1115 41.2406L20.6907 48.3269L22.8165 47.5531L20.2374 40.4669Z" fill="#B7E1ED"/>
<path d="M26.6149 38.1456L25.9063 38.4036L30.2909 50.4501L30.9995 50.1922L26.6149 38.1456Z" fill="#B7E1ED"/>
<path d="M38.6615 33.7611L37.9529 34.019L42.0795 45.3569L42.7882 45.099L38.6615 33.7611Z" fill="#B7E1ED"/>
<path d="M46.4563 30.924L44.3305 31.6977L46.6517 38.0753L48.7776 37.3016L46.4563 30.924Z" fill="#B7E1ED"/>
<path d="M26.1642 39.1122L25.4556 39.3701L29.3244 49.9994L30.033 49.7415L26.1642 39.1122Z" fill="#B7E1ED"/>
<path d="M39.628 34.2118L38.9194 34.4697L42.7882 45.099L43.4968 44.8411L39.628 34.2118Z" fill="#B7E1ED"/>
<path d="M40.3367 33.9538L39.628 34.2118L39.886 34.9204L40.5946 34.6625L40.3367 33.9538Z" fill="#222034"/>
<path d="M15.0842 43.9475L14.3756 44.2054L15.4073 47.0399L16.1159 46.782L15.0842 43.9475Z" fill="#222034"/>
<path d="M25.7135 40.0787L25.0049 40.3366L28.6158 50.2573L29.3244 49.9994L25.7135 40.0787Z" fill="#B7E1ED"/>
<path d="M40.5946 34.6625L39.886 34.9204L43.4968 44.8411L44.2054 44.5832L40.5946 34.6625Z" fill="#B7E1ED"/>
<path d="M50.5153 31.0516L49.8066 31.3096L50.8383 34.144L51.5469 33.8861L50.5153 31.0516Z" fill="#222034"/>
<path d="M25.2628 41.0453L21.0111 42.5928L23.5903 49.679L27.842 48.1315L25.2628 41.0453Z" fill="#B7E1ED"/>
<path d="M45.1042 33.8236L40.8525 35.3711L43.1737 41.7487L47.4255 40.2012L45.1042 33.8236Z" fill="#B7E1ED"/>
<path d="M16.3087 45.1068L15.6001 45.3647L16.6317 48.1992L17.3404 47.9413L16.3087 45.1068Z" fill="#222034"/>
<path d="M50.3225 32.7268L49.6139 32.9847L50.6455 35.8192L51.3541 35.5613L50.3225 32.7268Z" fill="#222034"/>
<path d="M17.2752 45.5575L16.5666 45.8154L17.5983 48.6499L18.3069 48.392L17.2752 45.5575Z" fill="#222034"/>
<path d="M49.8718 33.6933L49.1631 33.9512L50.1948 36.7857L50.9034 36.5278L49.8718 33.6933Z" fill="#222034"/>
<path d="M18.4997 46.7168L17.7911 46.9747L18.5648 49.1006L19.2734 48.8427L18.4997 46.7168Z" fill="#222034"/>
<path d="M49.679 35.3685L48.9704 35.6264L49.7441 37.7523L50.4527 37.4943L49.679 35.3685Z" fill="#222034"/>
<path d="M19.4662 47.1675L18.7576 47.4254L19.5313 49.5513L20.24 49.2934L19.4662 47.1675Z" fill="#222034"/>
<path d="M49.2283 36.335L48.5197 36.5929L49.2934 38.7188L50.002 38.4609L49.2283 36.335Z" fill="#222034"/>
<path d="M20.4328 47.6182L19.7241 47.8762L20.4979 50.002L21.2065 49.7441L20.4328 47.6182Z" fill="#222034"/>
<path d="M48.069 37.5595L46.6517 38.0753L46.9096 38.7839L48.3269 38.2681L48.069 37.5595Z" fill="#B7E1ED"/>
<path d="M48.7776 37.3016L48.069 37.5595L48.8427 39.6853L49.5513 39.4274L48.7776 37.3016Z" fill="#222034"/>
<path d="M21.3993 48.0689L20.6907 48.3269L21.4644 50.4527L22.173 50.1948L21.3993 48.0689Z" fill="#222034"/>
<path d="M22.8165 47.5531L21.3993 48.0689L21.6572 48.7776L23.0744 48.2617L22.8165 47.5531Z" fill="#B7E1ED"/>
<path d="M47.6183 38.526L46.9096 38.7839L47.1675 39.4926L47.8762 39.2346L47.6183 38.526Z" fill="#B7E1ED"/>
<path d="M48.3269 38.2681L47.6183 38.526L48.392 40.6519L49.1006 40.394L48.3269 38.2681Z" fill="#222034"/>
<path d="M22.3658 48.5196L21.6572 48.7776L22.431 50.9034L23.1396 50.6455L22.3658 48.5196Z" fill="#222034"/>
<path d="M23.0744 48.2617L22.3658 48.5196L22.6237 49.2283L23.3324 48.9703L23.0744 48.2617Z" fill="#B7E1ED"/>
<path d="M47.8762 39.2346L47.1675 39.4926L47.9413 41.6184L48.6499 41.3605L47.8762 39.2346Z" fill="#222034"/>
<path d="M23.3324 48.9703L22.6237 49.2283L23.3975 51.3541L24.1061 51.0962L23.3324 48.9703Z" fill="#222034"/>
<path d="M46.7168 40.4591L43.1737 41.7487L43.4317 42.4573L46.9748 41.1677L46.7168 40.4591Z" fill="#B7E1ED"/>
<path d="M47.4255 40.2012L46.7168 40.4591L47.4906 42.585L48.1992 42.327L47.4255 40.2012Z" fill="#222034"/>
<path d="M25.0075 49.1631L23.5903 49.679L24.1061 51.0962L25.5234 50.5804L25.0075 49.1631Z" fill="#222034"/>
<path d="M27.842 48.1315L25.0075 49.1631L25.2654 49.8718L28.0999 48.8401L27.842 48.1315Z" fill="#B7E1ED"/>
<path d="M45.5575 41.6835L43.4317 42.4573L43.6896 43.1659L45.8154 42.3922L45.5575 41.6835Z" fill="#B7E1ED"/>
<path d="M46.9748 41.1677L45.5575 41.6835L46.0734 43.1008L47.4906 42.585L46.9748 41.1677Z" fill="#222034"/>
<path d="M25.9741 49.6138L25.2654 49.8718L26.0392 51.9976L26.7478 51.7397L25.9741 49.6138Z" fill="#222034"/>
<path d="M28.0999 48.8401L25.9741 49.6138L26.232 50.3225L28.3578 49.5487L28.0999 48.8401Z" fill="#B7E1ED"/>
<path d="M45.1068 42.6501L43.6896 43.1659L43.9475 43.8745L45.3647 43.3587L45.1068 42.6501Z" fill="#B7E1ED"/>
<path d="M45.8154 42.3922L45.1068 42.6501L45.8806 44.7759L46.5892 44.518L45.8154 42.3922Z" fill="#222034"/>
<path d="M25.5234 50.5804L24.8147 50.8383L25.0727 51.5469L25.7813 51.289L25.5234 50.5804Z" fill="#222034"/>
<path d="M27.6492 49.8066L26.232 50.3225L26.7478 51.7397L28.165 51.2239L27.6492 49.8066Z" fill="#222034"/>
<path d="M28.3578 49.5487L27.6492 49.8066L27.9071 50.5152L28.6158 50.2573L28.3578 49.5487Z" fill="#B7E1ED"/>
<path d="M45.3647 43.3587L43.9475 43.8745L44.4633 45.2918L45.8806 44.7759L45.3647 43.3587Z" fill="#222034"/>
<path d="M46.782 42.8429L46.0734 43.1008L46.3313 43.8094L47.0399 43.5515L46.782 42.8429Z" fill="#222034"/>
<path d="M30.033 49.7415L27.9071 50.5152L28.423 51.9325L30.5488 51.1587L30.033 49.7415Z" fill="#222034"/>
<path d="M44.2054 44.5832L42.0795 45.3569L42.5954 46.7741L44.7212 46.0004L44.2054 44.5832Z" fill="#222034"/>
<path d="M28.165 51.2239L27.4564 51.4818L27.7143 52.1904L28.423 51.9325L28.165 51.2239Z" fill="#222034"/>
<path d="M32.4168 49.6764L30.2909 50.4501L30.8067 51.8674L32.9326 51.0936L32.4168 49.6764Z" fill="#222034"/>
<path d="M40.2116 46.8393L32.4168 49.6764L32.6747 50.385L40.4695 47.5479L40.2116 46.8393Z" fill="#B7E1ED"/>
<path d="M42.3375 46.0655L40.2116 46.8393L40.7274 48.2565L42.8533 47.4828L42.3375 46.0655Z" fill="#222034"/>
<path d="M45.1719 45.0339L44.4633 45.2918L44.7212 46.0004L45.4299 45.7425L45.1719 45.0339Z" fill="#222034"/>
<path d="M30.5488 51.1587L29.1316 51.6746L29.3895 52.3832L30.8067 51.8674L30.5488 51.1587Z" fill="#222034"/>
<path d="M40.4695 47.5479L32.6747 50.385L33.1905 51.8022L40.9854 48.9651L40.4695 47.5479Z" fill="#222034"/>
<path d="M44.0126 46.2583L42.5954 46.7741L42.8533 47.4828L44.2705 46.9669L44.0126 46.2583Z" fill="#222034"/>
<path d="M32.9326 51.0936L31.5154 51.6094L31.7733 52.3181L33.1905 51.8022L32.9326 51.0936Z" fill="#222034"/>
<path d="M42.1447 47.7407L40.7274 48.2565L40.9854 48.9651L42.4026 48.4493L42.1447 47.7407Z" fill="#222034"/>
<path d="M40.2767 49.2231L33.8991 51.5443L34.1571 52.2529L40.5346 49.9317L40.2767 49.2231Z" fill="#222034"/>
<path d="M72.9108 15.3668H67.0868V18.0868H71.5028V22.6948H67.0868V29.9588H60.2388V10.0868H73.3588L72.9108 15.3668ZM87.5485 18.7588L87.3565 25.1588C87.3565 25.4575 87.4632 25.6601 87.6765 25.7668C87.9112 25.8521 88.3165 25.8948 88.8925 25.8948L88.2845 30.1508C87.0045 30.2361 86.1405 30.2788 85.6925 30.2788C84.1352 30.2788 83.0045 29.8628 82.3005 29.0308H82.0765C81.0525 29.8628 79.7619 30.2788 78.2045 30.2788C76.6685 30.2788 75.4952 29.8735 74.6845 29.0628C73.8952 28.2308 73.5005 27.0895 73.5005 25.6388C73.5005 23.8468 74.0979 22.5988 75.2925 21.8948C76.5085 21.1908 78.4285 20.7428 81.0525 20.5508V19.9748C81.0525 19.5908 80.8499 19.3988 80.4445 19.3988C79.3565 19.3988 77.4899 19.7295 74.8445 20.3908L73.8525 15.3348C76.9032 14.6095 79.5272 14.2468 81.7245 14.2468C83.9219 14.2468 85.4365 14.6095 86.2685 15.3348C87.1219 16.0601 87.5485 17.2015 87.5485 18.7588ZM80.3165 26.1508C80.9352 26.1508 81.2445 25.8308 81.2445 25.1908V23.9748C80.1352 24.1241 79.5805 24.5508 79.5805 25.2548C79.5805 25.8521 79.8259 26.1508 80.3165 26.1508ZM105.725 29.9588H98.5253L96.6693 24.9348H96.5413V29.9588H89.9813V9.4468H96.5413V20.0068H96.6693L98.9093 14.6308H105.853L102.269 22.5988C102.675 23.4735 103.261 24.7428 104.029 26.4068C104.819 28.0495 105.384 29.2335 105.725 29.9588ZM113.715 19.3988C113.267 19.3988 112.957 19.5375 112.787 19.8148C112.616 20.0921 112.531 20.5188 112.531 21.0948H114.835V20.5828C114.835 19.7935 114.461 19.3988 113.715 19.3988ZM105.939 22.2468C105.939 19.7081 106.6 17.7455 107.923 16.3588C109.267 14.9508 111.229 14.2468 113.811 14.2468C116.413 14.2468 118.248 14.7801 119.315 15.8468C120.403 16.9135 120.947 18.4388 120.947 20.4228C120.947 21.2121 120.861 22.4068 120.691 24.0068H112.659C112.744 25.1588 113.448 25.7348 114.771 25.7348C115.389 25.7348 117.011 25.5108 119.635 25.0628L120.179 29.3828C117.917 29.9801 115.805 30.2788 113.843 30.2788C111.283 30.2788 109.32 29.5748 107.955 28.1668C106.611 26.7588 105.939 24.7855 105.939 22.2468ZM79.0228 37.2468C81.9668 37.2468 83.4388 38.6975 83.4388 41.5988V52.9588H76.6868V43.0388C76.6868 42.6975 76.5588 42.5268 76.3028 42.5268C75.9615 42.5268 75.5348 42.6335 75.0228 42.8468V52.9588H68.2708V43.0388C68.2708 42.6975 68.1321 42.5268 67.8548 42.5268C67.4708 42.5268 67.0441 42.6335 66.5748 42.8468V52.9588H59.9188V37.6308H65.9668L66.1588 38.6228C67.5881 37.7055 69.1348 37.2468 70.7988 37.2468C72.4628 37.2468 73.6575 37.7588 74.3828 38.7828C75.8335 37.7588 77.3801 37.2468 79.0228 37.2468ZM89.9003 53.2788C86.871 53.2788 85.3563 51.8281 85.3563 48.9268V37.6308H92.0763V47.6788C92.0763 48.0201 92.2256 48.1908 92.5243 48.1908C92.8443 48.1908 93.2603 48.0841 93.7723 47.8708V37.6308H100.46V52.8948H94.0603V52.0948H93.8683C92.631 52.8841 91.3083 53.2788 89.9003 53.2788ZM114.35 48.1908C114.35 51.5828 112.377 53.2788 108.43 53.2788C106.382 53.2788 104.398 53.0548 102.478 52.6068L102.894 47.9028C105.561 48.5428 107.332 48.8628 108.206 48.8628C108.505 48.8628 108.654 48.7668 108.654 48.5748C108.654 48.3828 108.484 48.2228 108.142 48.0948C105.945 47.3481 104.345 46.5588 103.342 45.7268C102.34 44.8948 101.838 43.7001 101.838 42.1428C101.838 40.5855 102.382 39.3801 103.47 38.5268C104.58 37.6735 106.062 37.2468 107.918 37.2468C109.796 37.2468 111.854 37.4601 114.094 37.8868L113.422 42.7188C110.606 42.1641 108.9 41.8868 108.302 41.8868C108.025 41.8868 107.886 41.9935 107.886 42.2068C107.886 42.3775 108.068 42.5268 108.43 42.6548C110.201 43.2308 111.481 43.8068 112.27 44.3828C113.06 44.9375 113.604 45.5135 113.902 46.1108C114.201 46.7081 114.35 47.4015 114.35 48.1908ZM122.393 52.9588H115.737V37.9508H122.393V52.9588ZM115.609 34.7188C115.609 32.9055 116.75 31.9988 119.033 31.9988C121.315 31.9988 122.457 32.9055 122.457 34.7188C122.457 35.6575 122.169 36.3295 121.593 36.7348C121.038 37.1401 120.185 37.3428 119.033 37.3428C117.881 37.3428 117.017 37.1508 116.441 36.7668C115.886 36.3615 115.609 35.6788 115.609 34.7188ZM132.097 42.2708C131.521 42.2708 131.137 42.5268 130.945 43.0388C130.775 43.5508 130.689 44.3401 130.689 45.4068C130.689 46.4735 130.775 47.2521 130.945 47.7428C131.116 48.2121 131.521 48.4468 132.161 48.4468C132.801 48.4468 133.815 48.3081 135.201 48.0308L135.905 52.4788C134.028 53.0121 132.449 53.2788 131.169 53.2788C128.801 53.2788 127.009 52.5961 125.793 51.2308C124.599 49.8655 124.001 47.9561 124.001 45.5028C124.001 43.0495 124.62 41.0655 125.857 39.5508C127.095 38.0148 128.897 37.2468 131.265 37.2468C132.993 37.2468 134.625 37.5348 136.161 38.1108L135.489 43.1668C133.825 42.5695 132.695 42.2708 132.097 42.2708Z" fill="white"/>
</svg>
